<svg id="Capa_1" data-name="Capa 1" xmlns="http://www.w3.org/2000/svg" viewBox="0 0 2440.87 576"><defs><style>.cls-1{fill:#2daae1;}</style></defs><path class="cls-1" d="M431,117.53v92.64H270.53v33.65H400.72v92.64H270.53V458.85H169.59V117.53Z"/><path class="cls-1" d="M1041.42,458.85V290.63L913.18,458.85H823V117.53h97v169.2l128.24-169.2h90.21V458.85Z"/><path class="cls-1" d="M1313,216c-2.44-9.26-13.66-15.11-25.85-15.11-11.7,0-20,4.87-20,12.19,0,5.36,3.42,9.75,12.68,13.65l13.65,4.88c8.29,2.44,27.79,7.8,38,11.21,25.84,8.29,44.37,16.58,65.33,33.64,21,16.1,32.67,42.43,32.67,75.1,0,34.13-12.19,61.44-36.08,81.91-23.89,20-55.1,30.23-93.62,30.23-36.08,0-67.29-8.77-94.11-26.32-26.33-17.56-42.91-41-50.22-69.73l102.88-17.56c3.91,14.14,21,24.87,41.94,24.87,15.6,0,28.28-5.85,28.28-13.65,0-4.39-2.93-8.29-12.68-12.19l-12.68-4.88a167.58,167.58,0,0,0-18-6.33l-18.53-5.86c-27.3-9.75-44.86-17.55-66.8-34.62-21.45-17.06-33.64-42.91-33.64-76.06,0-32.67,10.73-58.51,32.67-78.51s50.71-30.23,86.3-30.23c31.7,0,59.49,8.29,83.38,24.38s39,36.57,44.37,62.41Z"/><path class="cls-1" d="M1710.41,117.53v92.64H1550v30.72h130.2v92.65H1550v32.67h162.87v92.64h-263.8V117.53Z"/><path class="cls-1" d="M1833.28,117.53V366.21h151.16v92.64H1732.35V117.53Z"/><path class="cls-1" d="M2104.87,458.85H2003.94V117.53h159q57,0,95.08,35.1c25.84,23.41,38.52,52.66,38.52,87.77s-12.68,64.37-38.52,88.26q-38,35.11-95.08,35.11h-58Zm0-248.68v61h58c16.09,0,28.76-13.16,28.76-30.72,0-17.06-12.67-30.23-28.76-30.23Z"/><path class="cls-1" d="M738.81,163.36c32.79,33.65,49.41,75.09,49.41,124.83S771.6,379.86,738.81,413.5s-73.42,50.22-122.37,50.22c-48.48,0-89.58-16.57-122.36-50.22s-49.41-75.57-49.41-125.31S461.29,197,494.08,163.36,568,112.65,616.44,112.65C665.39,112.65,706,129.72,738.81,163.36ZM564.73,344.26c13.85,15.12,30.93,22.43,51.71,22.43s37.87-7.31,51.72-22.43,20.78-34.13,20.78-56.56q0-32.91-20.78-55.59C654.31,217,637.22,209.2,616.44,209.2c-20.31,0-37.4,7.8-51.25,22.91s-20.78,33.65-20.78,55.59C544.41,310.13,551.33,329.15,564.73,344.26Z"/><rect class="cls-1" x="623.33" y="112.65" width="88.51" height="54.78"/></svg>